# xmcd
#
# Track frame offsets:
#	150
#	14926
#	31987
#	45278
#	61178
#	73327
#	87263
#	102670
#	118926
#	131922
#
# Disc length: 1901 seconds
#
# Revision: 0
# Processed by: cddbd v1.5.2PL0 Copyright (c) Steve Scherf et al.
# Submitted via: dBpowerAMP V4.0
#
DISCID=94076b0a
DTITLE=Alex Gomez - Warm Sensations
DYEAR=1900
DGENRE=Blues
TTITLE0=Bayou City
TTITLE1=Sookie Sookie Sheila
TTITLE2=Girls Go Wild
TTITLE3=Boogie Shack
TTITLE4=Jellyroll Cupcake
TTITLE5=Valerie
TTITLE6=Midnight Rendezvous
TTITLE7=Baby Momma
TTITLE8=Her Name Is Pain
TTITLE9=Guitar Man
EXTD=
EXTT0=
EXTT1=
EXTT2=
EXTT3=
EXTT4=
EXTT5=
EXTT6=
EXTT7=
EXTT8=
EXTT9=
PLAYORDER=
